<?xml version="1.0" encoding="UTF-8" standalone="no"?>
<!-- Generator: Adobe Illustrator 16.0.4, SVG Export Plug-In . SVG Version: 6.00 Build 0)  -->

<svg
   xmlns:dc="http://purl.org/dc/elements/1.1/"
   xmlns:cc="http://creativecommons.org/ns#"
   xmlns:rdf="http://www.w3.org/1999/02/22-rdf-syntax-ns#"
   xmlns:svg="http://www.w3.org/2000/svg"
   xmlns="http://www.w3.org/2000/svg"
   xmlns:sodipodi="http://sodipodi.sourceforge.net/DTD/sodipodi-0.dtd"
   xmlns:inkscape="http://www.inkscape.org/namespaces/inkscape"
   version="1.1"
   id="Layer_1"
   x="0px"
   y="0px"
   width="222.76939"
   height="69.82103"
   viewBox="0 0 222.76939 69.82103"
   enable-background="new 0 0 612 792"
   xml:space="preserve"
   inkscape:version="0.91 r13725"
   sodipodi:docname="ISM-Logo-4C-F.svg"><metadata
     id="metadata3582"><rdf:RDF><cc:Work
         rdf:about=""><dc:format>image/svg+xml</dc:format><dc:type
           rdf:resource="http://purl.org/dc/dcmitype/StillImage" /><dc:title></dc:title></cc:Work></rdf:RDF></metadata><defs
     id="defs3580" /><sodipodi:namedview
     pagecolor="#ffffff"
     bordercolor="#666666"
     borderopacity="1"
     objecttolerance="10"
     gridtolerance="10"
     guidetolerance="10"
     inkscape:pageopacity="0"
     inkscape:pageshadow="2"
     inkscape:window-width="1280"
     inkscape:window-height="1080"
     id="namedview3578"
     showgrid="false"
     fit-margin-top="0"
     fit-margin-left="0"
     fit-margin-right="0"
     fit-margin-bottom="0"
     inkscape:zoom="1.4962121"
     inkscape:cx="108.1567"
     inkscape:cy="3.079"
     inkscape:window-x="0"
     inkscape:window-y="0"
     inkscape:window-maximized="0"
     inkscape:current-layer="Layer_1" /><g
     id="g3480"
     transform="translate(-197.8433,-329.25797)"><path
       d="m 204.238,339.818 c -1.813,0.37 -3.575,-0.754 -3.947,-2.581 -0.372,-1.827 0.75,-3.604 2.562,-3.976 1.812,-0.379 3.584,0.799 3.957,2.624 0.361,1.777 -0.809,3.564 -2.572,3.933 z"
       id="path3482"
       inkscape:connector-curvature="0"
       style="fill:#8cc747" /></g><g
     id="g3484"
     transform="translate(-197.8433,-329.25797)"><path
       d="m 415.775,333.017 c 2.18,0 3.955,1.775 3.955,3.955 0,2.18 -1.775,3.955 -3.955,3.955 -2.18,0 -3.955,-1.775 -3.955,-3.955 0,-2.18 1.776,-3.955 3.955,-3.955 z m 0.012,7.318 c 1.818,0 3.188,-1.468 3.188,-3.364 0,-1.895 -1.369,-3.363 -3.188,-3.363 -1.842,0 -3.211,1.468 -3.211,3.363 0,1.896 1.369,3.364 3.211,3.364 z m -1.523,-5.686 1.775,0 c 1.062,0 1.588,0.427 1.588,1.304 0,0.745 -0.471,1.282 -1.193,1.282 l 1.314,2.049 -0.801,0 -1.293,-2.049 -0.635,0 0,2.049 -0.756,0 0,-4.635 z m 0.756,1.994 0.898,0 c 0.58,0 0.953,-0.121 0.953,-0.723 0,-0.526 -0.471,-0.679 -0.953,-0.679 l -0.898,0 0,1.402 z"
       id="path3486"
       inkscape:connector-curvature="0" /></g><path
     d="m 65.4347,26.783033 c -0.631,5.527 0.696,14.074 8.64,14.381 3.611,0.137 6.272,-2.33 8.336,-5.365 l 0.854,0.93 c -2.236,3.887 -5.886,6.605 -10.096,6.52 -7.188,-0.146 -12.291,-6.746 -12.132,-14.551 0.148,-7.293 4.87,-14.721 12.057,-14.576 6.417,0.131 10.706,6.318 10.569,13.039 l -18.228,-0.378 m 14.079,-1.527 c -0.222,-4.01 -2.044,-9.166 -6.511,-9.256 -4.363,-0.09 -6.497,5.143 -7.253,8.977 l 13.764,0.279 z"
     id="path3488"
     inkscape:connector-curvature="0"
     style="fill:#00bfdc" /><path
     d="m 91.9157,28.189033 c 0.342,5.553 3.137,13.74 11.012,12.658 3.579,-0.492 5.77,-3.385 7.274,-6.734 l 1.003,0.768 c -1.526,4.215 -4.647,7.529 -8.808,8.178 -7.102,1.107 -13.275,-4.506 -14.478,-12.219 -1.123,-7.207 2.234,-15.344 9.336,-16.451 6.342,-0.986 11.643,4.357 12.679,11 l -18.018,2.8 m 13.599,-3.951 c -0.917,-3.912 -3.606,-8.674 -8.021,-7.986 -4.312,0.674 -5.502,6.197 -5.581,10.105 l 13.602,-2.119 z"
     id="path3490"
     inkscape:connector-curvature="0"
     style="fill:#f1564b" /><path
     d="m 57.7827,16.947033 -1.527,0.449 c -1.75,-4.254 -4.744,-9.1639997 -9.622,-9.9769997 -3.659,-0.609 -6.96,1.75 -7.569,5.4079997 -0.708,4.246 3.498,6.699 6.742,8.293 5.829,2.926 11.847,5.633 10.556,13.391 -1.04,6.244 -6.61,9.58 -12.66,8.572 -3.073,-0.512 -5.473,-2.365 -7.424,-2.689 -1.072,-0.178 -2.356,0.309 -3.21,0.92 l -1.978,-10.107 1.577,-0.439 c 2.319,4.447 5.938,9.814 11.013,10.658 3.755,0.623 7.643,-1.336 8.316,-5.387 1.886,-11.318 -19.029,-8.883 -16.852,-21.959 1.024,-6.1479997 5.952,-9.2379997 12.002,-8.2319997 1.561,0.262 2.389,0.703 3.763,1.482 1.066,0.527 1.465,0.844 2.537,1.021 0.831,0.139 1.846,0.059 2.545,-0.527 l 1.791,9.1229997"
     id="path3492"
     inkscape:connector-curvature="0"
     style="fill:#f1564b" /><path
     d="m 173.4167,26.039033 c -1.15,5.445 -0.633,14.078 7.248,15.133 3.58,0.479 6.461,-1.73 8.801,-4.559 l 0.764,1.008 c -2.59,3.658 -6.482,6.021 -10.666,5.541 -7.143,-0.822 -11.6,-7.877 -10.707,-15.633 0.836,-7.246 6.236,-14.197 13.379,-13.373 6.375,0.734 10.061,7.299 9.293,13.977 l -18.112,-2.094 m 14.158,-0.192 c 0.158,-4.016 -1.172,-9.318 -5.607,-9.83 -4.336,-0.5 -6.951,4.508 -8.068,8.254 l 13.675,1.576 z"
     id="path3494"
     inkscape:connector-curvature="0"
     style="fill:#f58220" /><path
     d="m 162.2837,32.545033 c 0.413,5.42 1.158,6.641 4.9,6.357 l 0.123,1.609 -13.363,1.02 -0.12,-1.611 c 3.746,-0.287 4.297,-1.607 3.883,-7.029 l -1.8,-23.6479997 -0.141,0.01 -9.031,32.8239997 -1.759,0.137 -13.819,-31.284 -0.137,0.012 1.813,23.842 c 0.414,5.42 1.11,6.65 4.807,6.367 l 0.125,1.609 -10.772,0.82 -0.122,-1.609 c 3.742,-0.285 4.248,-1.604 3.834,-7.027 l -1.455,-19.148 c -0.409,-5.377 -1.113,-6.6519997 -4.856,-6.3669997 l -0.123,-1.611 9.986,-0.758 12.287,27.6639997 8.007,-29.2089997 10.036,-0.764 0.121,1.609 c -3.742,0.287 -4.293,1.654 -3.879,7.0289997 l 1.455,19.156"
     id="path3496"
     inkscape:connector-curvature="0"
     style="fill:#8d64aa" /><path
     d="m 201.8727,30.957033 c 0.811,-4.928 1.629,-10.916 1.957,-16.461 0.109,-2.279 0.037,-4.8889997 0.094,-7.8849997 0.002,-1.002 -0.006,-2.303 0.164,-3.275 0.375,-2.115 1.943,-3.66800003 4.176,-3.27500003 2.287,0.404 3.178,2.39100003 2.805,4.50600003 -0.172,0.973 -0.623,2.191 -0.969,3.135 -0.973,2.8359997 -1.928,5.2619997 -2.607,7.4409997 -1.586,5.322 -2.865,11.23 -3.791,16.141 l -1.829,-0.327 z"
     id="path3498"
     inkscape:connector-curvature="0"
     style="fill:#f1564b" /><g
     id="g3500"
     transform="translate(-197.8433,-329.25797)"><path
       d="m 201.116,391.083 2.061,0 c 1.61,0 2.95,0.563 2.95,2.354 0,1.746 -1.363,2.365 -2.781,2.365 l -1.104,0 0,3.141 -1.126,0 0,-7.86 z m 1.126,3.728 1.115,0 c 0.698,0 1.576,-0.349 1.576,-1.385 0,-0.991 -1.036,-1.351 -1.734,-1.351 l -0.958,0 0,2.736 z"
       id="path3502"
       inkscape:connector-curvature="0" /><path
       d="m 208.693,391.083 4.403,0 0,0.991 -3.277,0 0,2.297 2.984,0 0,0.991 -2.984,0 0,2.59 3.277,0 0,0.99 -4.403,0 0,-7.859 z"
       id="path3504"
       inkscape:connector-curvature="0" /><path
       d="m 216.022,391.083 1.926,0 c 1.554,0 3.052,0.248 3.052,2.128 0,0.958 -0.709,1.633 -1.622,1.791 l 0,0.022 c 0.349,0.135 0.518,0.304 0.766,0.789 l 1.486,3.13 -1.284,0 -1.205,-2.725 c -0.349,-0.766 -0.721,-0.766 -1.318,-0.766 l -0.676,0 0,3.49 -1.126,0 0,-7.859 z m 1.126,3.379 0.958,0 c 1.07,0 1.7,-0.473 1.7,-1.228 0,-0.709 -0.541,-1.16 -1.577,-1.16 l -1.081,0 0,2.388 z"
       id="path3506"
       inkscape:connector-curvature="0" /><path
       d="m 227.732,392.266 c -0.574,-0.225 -0.89,-0.327 -1.475,-0.327 -0.63,0 -1.374,0.225 -1.374,1.047 0,1.509 3.378,1.16 3.378,3.75 0,1.677 -1.295,2.342 -2.872,2.342 -0.552,0 -1.092,-0.157 -1.61,-0.327 l 0.113,-1.047 c 0.383,0.158 1.059,0.383 1.633,0.383 0.642,0 1.543,-0.36 1.543,-1.284 0,-1.757 -3.378,-1.272 -3.378,-3.716 0,-1.396 1.104,-2.14 2.522,-2.14 0.518,0 1.137,0.09 1.678,0.281 l -0.158,1.038 z"
       id="path3508"
       inkscape:connector-curvature="0" /><path
       d="m 234.363,390.949 c 2.388,0 3.784,1.734 3.784,4.065 0,2.387 -1.385,4.065 -3.784,4.065 -2.398,0 -3.784,-1.679 -3.784,-4.065 0,-2.331 1.397,-4.065 3.784,-4.065 z m 0,7.139 c 1.813,0 2.59,-1.509 2.59,-3.074 0,-1.599 -0.856,-3.085 -2.59,-3.074 -1.734,-0.011 -2.59,1.475 -2.59,3.074 0,1.565 0.777,3.074 2.59,3.074 z"
       id="path3510"
       inkscape:connector-curvature="0" /><path
       d="m 240.925,391.083 1.532,0 3.468,6.329 0.022,0 0,-6.329 1.126,0 0,7.86 -1.441,0 -3.559,-6.463 -0.022,0 0,6.463 -1.126,0 0,-7.86 z"
       id="path3512"
       inkscape:connector-curvature="0" /><path
       d="m 252.747,391.083 1.183,0 3.322,7.86 -1.227,0 -0.8,-1.981 -3.851,0 -0.8,1.981 -1.182,0 3.355,-7.86 z m 0.552,1.059 -1.565,3.896 3.13,0 -1.565,-3.896 z"
       id="path3514"
       inkscape:connector-curvature="0" /><path
       d="m 259.569,391.083 1.126,0 0,6.87 3.288,0 0,0.99 -4.415,0 0,-7.86 z"
       id="path3516"
       inkscape:connector-curvature="0" /><path
       d="m 266.403,391.083 1.126,0 0,7.86 -1.126,0 0,-7.86 z"
       id="path3518"
       inkscape:connector-curvature="0" /><path
       d="m 270.084,397.93 4.077,-5.855 -3.941,0 0,-0.991 5.236,0 0,1.014 -4.065,5.856 4.133,0 0,0.99 -5.439,0 0,-1.014 z"
       id="path3520"
       inkscape:connector-curvature="0" /><path
       d="m 278.235,391.083 4.403,0 0,0.991 -3.277,0 0,2.297 2.984,0 0,0.991 -2.984,0 0,2.59 3.277,0 0,0.99 -4.403,0 0,-7.859 z"
       id="path3522"
       inkscape:connector-curvature="0" /><path
       d="m 285.564,391.083 2.32,0 c 2.331,0 4.189,1.441 4.189,3.863 0,2.635 -1.599,3.997 -4.189,3.997 l -2.32,0 0,-7.86 z m 1.126,6.87 1.183,0 c 1.937,0 3.007,-0.936 3.007,-2.962 0,-1.835 -1.25,-2.917 -2.872,-2.917 l -1.318,0 0,5.879 z"
       id="path3524"
       inkscape:connector-curvature="0" /><path
       d="m 304.705,392.379 c -0.496,-0.293 -1.047,-0.439 -1.622,-0.439 -1.813,0 -3.018,1.306 -3.018,3.074 0,1.847 1.329,3.074 2.961,3.074 0.563,0 1.318,-0.146 1.712,-0.383 l 0.067,1.092 c -0.597,0.248 -1.329,0.282 -1.791,0.282 -2.489,0 -4.144,-1.599 -4.144,-4.099 0,-2.421 1.757,-4.031 4.155,-4.031 0.608,0 1.205,0.09 1.768,0.338 l -0.088,1.092 z"
       id="path3526"
       inkscape:connector-curvature="0" /><path
       d="m 307.406,391.083 1.125,0 0,3.289 3.762,0 0,-3.289 1.126,0 0,7.86 -1.126,0 0,-3.581 -3.762,0 0,3.581 -1.125,0 0,-7.86 z"
       id="path3528"
       inkscape:connector-curvature="0" /><path
       d="m 316.672,391.083 1.125,0 0,7.86 -1.125,0 0,-7.86 z"
       id="path3530"
       inkscape:connector-curvature="0" /><path
       d="m 320.984,391.083 1.125,0 0,6.87 3.289,0 0,0.99 -4.414,0 0,-7.86 z"
       id="path3532"
       inkscape:connector-curvature="0" /><path
       d="m 327.75,391.083 2.32,0 c 2.33,0 4.188,1.441 4.188,3.863 0,2.635 -1.598,3.997 -4.188,3.997 l -2.32,0 0,-7.86 z m 1.125,6.87 1.184,0 c 1.936,0 3.006,-0.936 3.006,-2.962 0,-1.835 -1.25,-2.917 -2.871,-2.917 l -1.318,0 0,5.879 z"
       id="path3534"
       inkscape:connector-curvature="0" /><path
       d="m 337.07,391.083 1.926,0 c 1.555,0 3.053,0.248 3.053,2.128 0,0.958 -0.711,1.633 -1.623,1.791 l 0,0.022 c 0.35,0.135 0.52,0.304 0.768,0.789 l 1.486,3.13 -1.285,0 -1.205,-2.725 c -0.348,-0.766 -0.721,-0.766 -1.316,-0.766 l -0.676,0 0,3.49 -1.127,0 0,-7.859 z m 1.127,3.379 0.957,0 c 1.07,0 1.701,-0.473 1.701,-1.228 0,-0.709 -0.541,-1.16 -1.578,-1.16 l -1.08,0 0,2.388 z"
       id="path3536"
       inkscape:connector-curvature="0" /><path
       d="m 345.268,391.083 4.402,0 0,0.991 -3.277,0 0,2.297 2.984,0 0,0.991 -2.984,0 0,2.59 3.277,0 0,0.99 -4.402,0 0,-7.859 z"
       id="path3538"
       inkscape:connector-curvature="0" /><path
       d="m 352.652,391.083 1.531,0 3.469,6.329 0.023,0 0,-6.329 1.125,0 0,7.86 -1.441,0 -3.559,-6.463 -0.021,0 0,6.463 -1.127,0 0,-7.86 z"
       id="path3540"
       inkscape:connector-curvature="0" /><path
       d="m 362.268,391.083 1.26,0 -0.99,2.759 -0.969,0 0.699,-2.759 z"
       id="path3542"
       inkscape:connector-curvature="0" /><path
       d="m 369.879,392.266 c -0.574,-0.225 -0.891,-0.327 -1.477,-0.327 -0.631,0 -1.373,0.225 -1.373,1.047 0,1.509 3.379,1.16 3.379,3.75 0,1.677 -1.295,2.342 -2.873,2.342 -0.551,0 -1.092,-0.157 -1.609,-0.327 l 0.113,-1.047 c 0.383,0.158 1.057,0.383 1.633,0.383 0.641,0 1.541,-0.36 1.541,-1.284 0,-1.757 -3.377,-1.272 -3.377,-3.716 0,-1.396 1.104,-2.14 2.521,-2.14 0.518,0 1.139,0.09 1.678,0.281 l -0.156,1.038 z"
       id="path3544"
       inkscape:connector-curvature="0" /><path
       d="m 377.387,391.083 2.127,0 c 1.635,0 2.76,0.529 2.76,1.982 0,1.081 -0.631,1.622 -1.621,1.87 l 0,0.022 c 1.07,0.09 1.824,0.788 1.824,1.892 0,1.69 -1.396,2.094 -2.996,2.094 l -2.094,0 0,-7.86 z m 1.125,3.356 0.619,0 c 1.094,0 2.018,-0.102 2.018,-1.261 0,-0.935 -0.801,-1.171 -1.453,-1.171 l -1.184,0 0,2.432 z m 0,3.582 0.846,0 c 1.014,0 1.926,-0.214 1.926,-1.272 0,-1.216 -1.07,-1.385 -2.039,-1.385 l -0.732,0 0,2.657 z"
       id="path3546"
       inkscape:connector-curvature="0" /><path
       d="m 388.904,390.949 c 2.387,0 3.783,1.734 3.783,4.065 0,2.387 -1.385,4.065 -3.783,4.065 -2.398,0 -3.783,-1.679 -3.783,-4.065 0,-2.331 1.397,-4.065 3.783,-4.065 z m 0,7.139 c 1.812,0 2.59,-1.509 2.59,-3.074 0,-1.599 -0.855,-3.085 -2.59,-3.074 -1.734,-0.011 -2.59,1.475 -2.59,3.074 0,1.565 0.778,3.074 2.59,3.074 z"
       id="path3548"
       inkscape:connector-curvature="0" /><path
       d="m 398.857,390.949 c 2.387,0 3.783,1.734 3.783,4.065 0,2.387 -1.385,4.065 -3.783,4.065 -2.4,0 -3.785,-1.679 -3.785,-4.065 0,-2.331 1.397,-4.065 3.785,-4.065 z m 0,7.139 c 1.812,0 2.59,-1.509 2.59,-3.074 0,-1.599 -0.857,-3.085 -2.59,-3.074 -1.734,-0.011 -2.592,1.475 -2.592,3.074 0.001,1.565 0.778,3.074 2.592,3.074 z"
       id="path3550"
       inkscape:connector-curvature="0" /><path
       d="m 405.486,391.083 1.127,0 0,3.458 3.355,-3.458 1.498,0 -3.693,3.716 3.986,4.144 -1.645,0 -3.502,-3.851 0,3.851 -1.127,0 0,-7.86 z"
       id="path3552"
       inkscape:connector-curvature="0" /><path
       d="m 417.703,392.266 c -0.574,-0.225 -0.891,-0.327 -1.477,-0.327 -0.631,0 -1.373,0.225 -1.373,1.047 0,1.509 3.379,1.16 3.379,3.75 0,1.677 -1.295,2.342 -2.873,2.342 -0.551,0 -1.092,-0.157 -1.609,-0.327 l 0.113,-1.047 c 0.383,0.158 1.057,0.383 1.633,0.383 0.641,0 1.541,-0.36 1.541,-1.284 0,-1.757 -3.377,-1.272 -3.377,-3.716 0,-1.396 1.104,-2.14 2.521,-2.14 0.518,0 1.139,0.09 1.678,0.281 l -0.156,1.038 z"
       id="path3554"
       inkscape:connector-curvature="0" /></g><line
     stroke-miterlimit="10"
     x1="0.25969678"
     y1="52.40802"
     x2="222.50969"
     y2="52.40802"
     id="line3556"
     style="fill:none;stroke:#000000;stroke-width:0.51209998;stroke-linecap:round;stroke-linejoin:round;stroke-miterlimit:10" /><path
     d="m 200.5447,43.170033 c -1.889,-0.332 -3.266,-2.229 -2.924,-4.172 0.354,-2 2.193,-3.387 4.193,-3.033 2.059,0.361 3.369,2.305 3.006,4.361 -0.332,1.889 -2.275,3.197 -4.275,2.844"
     id="path3558"
     inkscape:connector-curvature="0"
     style="fill:#f1563f" /><path
     d="m 5.0027,10.857033 c -1.889,-0.332 -3.266,-2.2289997 -2.924,-4.1719997 0.354,-2 2.193,-3.387 4.193,-3.033 2.059,0.361 3.369,2.305 3.006,4.361 -0.332,1.889 -2.275,3.1979997 -4.275,2.8439997"
     id="path3560"
     inkscape:connector-curvature="0"
     style="fill:#8cc747" /><g
     id="g3562"
     transform="translate(-197.8433,-329.25797)"><path
       d="m 212.516,364.726 c 1.03,4.815 1.096,5.122 4.666,4.79 l 0.318,1.484 -11.478,2.452 -0.329,-1.537 c 3.399,-1.153 3.321,-1.513 2.302,-6.278 l -2.871,-13.47 c -0.733,-2.683 -0.993,-3.645 -4.119,-2.978 l -0.262,-1.23 7.116,-5.014 4.657,21.781 z"
       id="path3564"
       inkscape:connector-curvature="0"
       style="fill:#8cc747" /></g><g
     id="g3566"
     transform="translate(-197.8433,-329.25797)" /><g
     id="g3568"
     transform="translate(-197.8433,-329.25797)" /><g
     id="g3570"
     transform="translate(-197.8433,-329.25797)" /><g
     id="g3572"
     transform="translate(-197.8433,-329.25797)" /><g
     id="g3574"
     transform="translate(-197.8433,-329.25797)" /><g
     id="g3576"
     transform="translate(-197.8433,-329.25797)" /></svg>